<svg xmlns="http://www.w3.org/2000/svg" viewBox="0 0 760 280" role="img" aria-label="证据类型分布">
<title>证据类型分布</title>
<rect width="760" height="280" rx="16" fill="#ffffff"/>
<text x="28" y="34" font-family="-apple-system,BlinkMacSystemFont,Segoe UI,sans-serif" font-size="18" font-weight="700" fill="#17233b">证据类型分布</text>
<text x="28" y="56" font-family="-apple-system,BlinkMacSystemFont,Segoe UI,sans-serif" font-size="11" fill="#71809a">按 evidence.csv 的 evidence_type 字段统计。</text>
<text x="28" y="90" font-family="-apple-system,BlinkMacSystemFont,Segoe UI,sans-serif" font-size="12" fill="#44536c">patent_text_and_metadata</text>
<rect x="210" y="77" width="466" height="18" rx="9" fill="#edf2fa"/>
<rect x="210" y="77" width="466.0" height="18" rx="9" fill="#1264d9"/>
<text x="706" y="90" text-anchor="end" font-family="-apple-system,BlinkMacSystemFont,Segoe UI,sans-serif" font-size="13" font-weight="700" fill="#17233b">7</text>
<text x="28" y="124" font-family="-apple-system,BlinkMacSystemFont,Segoe UI,sans-serif" font-size="12" fill="#44536c">family_and_status_screen</text>
<rect x="210" y="111" width="466" height="18" rx="9" fill="#edf2fa"/>
<rect x="210" y="111" width="199.7" height="18" rx="9" fill="#3c8eea"/>
<text x="706" y="124" text-anchor="end" font-family="-apple-system,BlinkMacSystemFont,Segoe UI,sans-serif" font-size="13" font-weight="700" fill="#17233b">3</text>
<text x="28" y="158" font-family="-apple-system,BlinkMacSystemFont,Segoe UI,sans-serif" font-size="12" fill="#44536c">public_status_screen</text>
<rect x="210" y="145" width="466" height="18" rx="9" fill="#edf2fa"/>
<rect x="210" y="145" width="199.7" height="18" rx="9" fill="#72b7f5"/>
<text x="706" y="158" text-anchor="end" font-family="-apple-system,BlinkMacSystemFont,Segoe UI,sans-serif" font-size="13" font-weight="700" fill="#17233b">3</text>
<text x="28" y="192" font-family="-apple-system,BlinkMacSystemFont,Segoe UI,sans-serif" font-size="12" fill="#44536c">method_note</text>
<rect x="210" y="179" width="466" height="18" rx="9" fill="#edf2fa"/>
<rect x="210" y="179" width="66.6" height="18" rx="9" fill="#9bd4f7"/>
<text x="706" y="192" text-anchor="end" font-family="-apple-system,BlinkMacSystemFont,Segoe UI,sans-serif" font-size="13" font-weight="700" fill="#17233b">1</text>
<text x="28" y="226" font-family="-apple-system,BlinkMacSystemFont,Segoe UI,sans-serif" font-size="12" fill="#44536c">query_metadata</text>
<rect x="210" y="213" width="466" height="18" rx="9" fill="#edf2fa"/>
<rect x="210" y="213" width="66.6" height="18" rx="9" fill="#f2a93b"/>
<text x="706" y="226" text-anchor="end" font-family="-apple-system,BlinkMacSystemFont,Segoe UI,sans-serif" font-size="13" font-weight="700" fill="#17233b">1</text>
</svg>