<svg xmlns="http://www.w3.org/2000/svg" viewBox="0 0 760 416" role="img" aria-label="申请人/受让人分布">
<title>申请人/受让人分布</title>
<rect width="760" height="416" rx="16" fill="#ffffff"/>
<text x="28" y="34" font-family="-apple-system,BlinkMacSystemFont,Segoe UI,sans-serif" font-size="18" font-weight="700" fill="#17233b">申请人/受让人分布</text>
<text x="28" y="56" font-family="-apple-system,BlinkMacSystemFont,Segoe UI,sans-serif" font-size="11" fill="#71809a">按当前族 CSV 的 applicant_or_assignee 字段统计；未做集团级消歧。</text>
<text x="28" y="90" font-family="-apple-system,BlinkMacSystemFont,Segoe UI,sans-serif" font-size="12" fill="#44536c">AstraZeneca AB</text>
<rect x="210" y="77" width="466" height="18" rx="9" fill="#edf2fa"/>
<rect x="210" y="77" width="466.0" height="18" rx="9" fill="#72b7f5"/>
<text x="706" y="90" text-anchor="end" font-family="-apple-system,BlinkMacSystemFont,Segoe UI,sans-serif" font-size="13" font-weight="700" fill="#17233b">2</text>
<text x="28" y="124" font-family="-apple-system,BlinkMacSystemFont,Segoe UI,sans-serif" font-size="12" fill="#44536c">MedImmune Ltd</text>
<rect x="210" y="111" width="466" height="18" rx="9" fill="#edf2fa"/>
<rect x="210" y="111" width="466.0" height="18" rx="9" fill="#9bd4f7"/>
<text x="706" y="124" text-anchor="end" font-family="-apple-system,BlinkMacSystemFont,Segoe UI,sans-serif" font-size="13" font-weight="700" fill="#17233b">2</text>
<text x="28" y="158" font-family="-apple-system,BlinkMacSystemFont,Segoe UI,sans-serif" font-size="12" fill="#44536c">C</text>
<rect x="210" y="145" width="466" height="18" rx="9" fill="#edf2fa"/>
<rect x="210" y="145" width="233.0" height="18" rx="9" fill="#f2a93b"/>
<text x="706" y="158" text-anchor="end" font-family="-apple-system,BlinkMacSystemFont,Segoe UI,sans-serif" font-size="13" font-weight="700" fill="#17233b">1</text>
<text x="28" y="192" font-family="-apple-system,BlinkMacSystemFont,Segoe UI,sans-serif" font-size="12" fill="#44536c">Definiens AG</text>
<rect x="210" y="179" width="466" height="18" rx="9" fill="#edf2fa"/>
<rect x="210" y="179" width="233.0" height="18" rx="9" fill="#e3655b"/>
<text x="706" y="192" text-anchor="end" font-family="-apple-system,BlinkMacSystemFont,Segoe UI,sans-serif" font-size="13" font-weight="700" fill="#17233b">1</text>
<text x="28" y="226" font-family="-apple-system,BlinkMacSystemFont,Segoe UI,sans-serif" font-size="12" fill="#44536c">F. Hoffmann-La Roche AG</text>
<rect x="210" y="213" width="466" height="18" rx="9" fill="#edf2fa"/>
<rect x="210" y="213" width="233.0" height="18" rx="9" fill="#6d7892"/>
<text x="706" y="226" text-anchor="end" font-family="-apple-system,BlinkMacSystemFont,Segoe UI,sans-serif" font-size="13" font-weight="700" fill="#17233b">1</text>
<text x="28" y="260" font-family="-apple-system,BlinkMacSystemFont,Segoe UI,sans-serif" font-size="12" fill="#44536c">Genentech Inc</text>
<rect x="210" y="247" width="466" height="18" rx="9" fill="#edf2fa"/>
<rect x="210" y="247" width="233.0" height="18" rx="9" fill="#4ab39a"/>
<text x="706" y="260" text-anchor="end" font-family="-apple-system,BlinkMacSystemFont,Segoe UI,sans-serif" font-size="13" font-weight="700" fill="#17233b">1</text>
<text x="28" y="294" font-family="-apple-system,BlinkMacSystemFont,Segoe UI,sans-serif" font-size="12" fill="#44536c">Individual applicant</text>
<rect x="210" y="281" width="466" height="18" rx="9" fill="#edf2fa"/>
<rect x="210" y="281" width="233.0" height="18" rx="9" fill="#1264d9"/>
<text x="706" y="294" text-anchor="end" font-family="-apple-system,BlinkMacSystemFont,Segoe UI,sans-serif" font-size="13" font-weight="700" fill="#17233b">1</text>
<text x="28" y="328" font-family="-apple-system,BlinkMacSystemFont,Segoe UI,sans-serif" font-size="12" fill="#44536c">MedImmune LLC</text>
<rect x="210" y="315" width="466" height="18" rx="9" fill="#edf2fa"/>
<rect x="210" y="315" width="233.0" height="18" rx="9" fill="#3c8eea"/>
<text x="706" y="328" text-anchor="end" font-family="-apple-system,BlinkMacSystemFont,Segoe UI,sans-serif" font-size="13" font-weight="700" fill="#17233b">1</text>
<text x="28" y="362" font-family="-apple-system,BlinkMacSystemFont,Segoe UI,sans-serif" font-size="12" fill="#44536c">o Definiens AG</text>
<rect x="210" y="349" width="466" height="18" rx="9" fill="#edf2fa"/>
<rect x="210" y="349" width="233.0" height="18" rx="9" fill="#72b7f5"/>
<text x="706" y="362" text-anchor="end" font-family="-apple-system,BlinkMacSystemFont,Segoe UI,sans-serif" font-size="13" font-weight="700" fill="#17233b">1</text>
</svg>